<svg width="1210" height="962" viewBox="0 0 1210 962" fill="none" xmlns="http://www.w3.org/2000/svg">
<path d="M580.641 406.8C554.481 373.62 542.021 361.54 542.021 361.54C542.021 361.54 573.161 354.19 606.811 354.19C640.461 354.19 671.601 361.54 671.601 361.54C671.601 361.54 659.14 373.62 632.98 406.8C622.5 420.11 591.131 420.11 580.641 406.8Z" fill="#FE8572"/>
<path d="M651.401 362.271L639.811 266.571H573.811L562.221 362.271C561.071 371.801 568.501 380.191 578.101 380.191H635.511C645.121 380.201 652.551 371.801 651.401 362.271Z" fill="#FE8572"/>
<path d="M573.821 266.571L564.981 339.551C592.611 353.131 623.181 344.581 646.671 323.221L639.811 266.571H573.821V266.571Z" fill="#1A1A1A"/>
<path d="M703.391 142.061C702.731 98.9706 642.761 65.9006 608.771 65.8706L596.421 66.0606C562.451 67.1306 503.521 102.021 504.181 145.111C504.181 145.111 515.481 233.131 521.471 267.641C527.461 302.161 587.031 340.831 606.811 340.831C626.591 340.831 684.941 299.751 689.871 265.061C694.791 230.381 703.391 142.061 703.391 142.061Z" fill="#FE8572"/>
<path d="M521.771 265.401C514.111 260.681 506.391 255.921 499.931 250.061C493.471 244.201 488.281 237.091 486.781 229.401C485.281 221.711 484.991 212.211 494.911 208.761C503.241 205.861 520.701 224.041 520.701 224.041L521.771 265.401Z" fill="#FE8572"/>
<path d="M685.171 262.891C692.681 257.941 700.261 252.941 706.531 246.881C712.811 240.821 717.781 233.561 719.041 225.831C720.311 218.101 720.311 208.591 710.281 205.451C701.871 202.811 684.971 221.511 684.971 221.511L685.171 262.891Z" fill="#FE8572"/>
<path d="M607.201 255.421C607.781 255.171 609.171 254.501 609.301 253.711C609.421 252.921 606.251 252.751 604.691 252.341C603.131 251.931 601.541 250.981 601.321 249.331C601.051 247.281 603.011 245.331 603.311 243.221C603.331 243.081 603.341 242.931 603.351 242.791C602.471 241.041 600.581 241.571 599.511 242.701C598.801 243.451 598.401 244.431 598.071 245.391C597.361 247.491 596.981 249.721 597.391 251.781C597.801 253.831 599.091 255.681 601.031 256.311C602.961 256.941 605.131 256.311 607.201 255.421Z" fill="#B04F2E"/>
<path d="M638.961 208.341C644.511 205.501 651.26 207.801 654.75 213.621C655.24 214.441 656.131 214.841 656.911 214.291C657.601 213.811 657.971 212.551 657.481 211.721C655.371 208.211 652.421 205.561 648.951 204.241C645.131 202.791 641.021 203.221 637.361 205.091C636.581 205.491 636.4 206.861 636.79 207.661C637.27 208.631 638.171 208.751 638.961 208.341Z" fill="#1A1A1A"/>
<path d="M573.161 208.501C567.651 205.581 560.871 207.781 557.301 213.561C556.791 214.381 555.901 214.761 555.131 214.201C554.451 213.711 554.091 212.451 554.601 211.631C556.751 208.151 559.741 205.541 563.241 204.281C567.081 202.891 571.191 203.371 574.811 205.291C575.591 205.701 575.751 207.071 575.341 207.861C574.841 208.811 573.941 208.921 573.161 208.501Z" fill="#1A1A1A"/>
<path d="M655.151 226.181C654.941 232.521 650.321 237.271 645.201 237.091C640.081 236.911 636.401 231.861 636.611 225.521C636.821 219.181 641.131 214.181 646.251 214.361C651.371 214.551 655.361 219.841 655.151 226.181Z" fill="#1A1A1A"/>
<path d="M557.361 225.071C557.151 231.411 560.641 236.921 565.771 237.101C570.891 237.281 575.701 232.071 575.911 225.731C576.121 219.391 572.131 214.101 567.011 213.921C561.881 213.731 557.561 218.721 557.361 225.071Z" fill="#1A1A1A"/>
<path d="M641.321 260.101C611.571 266.401 582.931 264.151 566.551 261.941C569.381 275.321 587.431 286.711 602.961 286.481C623.301 286.171 636.891 277.281 641.321 260.101Z" fill="white"/>
<path d="M717.961 156.121C722.371 155.681 726.251 151.371 725.581 146.821C724.741 141.121 722.371 135.841 718.811 131.541C721.201 130.791 723.311 129.041 724.291 126.801C726.241 122.361 724.011 117.731 719.921 115.601C715.401 113.241 710.771 111.191 706.001 109.411C705.891 109.251 705.781 109.091 705.661 108.941C706.711 108.081 707.561 107.021 708.061 105.891C710.091 101.251 707.641 97.0606 703.691 94.6906C698.611 91.6406 693.281 89.0606 687.781 86.9106C691.921 83.0806 692.571 75.5306 685.811 73.0506C678.121 70.2206 670.511 69.8906 663.141 71.8406C659.661 63.4206 654.101 56.0006 646.681 50.2706C641.111 45.9706 634.711 49.9506 633.191 55.1206C629.621 51.8206 625.441 49.1806 620.781 47.4406C616.491 45.8306 611.501 47.4406 609.581 51.8106C609.321 52.3906 609.151 53.0106 609.041 53.6406C604.571 49.9206 599.211 47.3306 593.071 46.1706C588.101 45.2306 584.871 48.3106 583.891 52.0806C575.341 49.4506 566.501 49.5306 557.691 52.0006C554.631 52.8606 552.701 55.8506 552.301 58.9506C547.641 59.3306 543.021 60.2206 538.421 61.5806C533.381 63.0706 532.161 67.5106 533.411 71.3806C525.081 73.0206 517.501 76.7406 513.941 84.5506C512.081 88.6406 513.611 92.1906 516.371 94.2806C507.471 98.0706 500.731 107.211 500.371 116.921C500.321 118.371 500.521 119.781 500.971 121.081C496.961 123.861 493.801 127.791 492.301 132.561C490.971 136.791 492.071 141.981 496.671 143.761C496.741 143.791 496.811 143.801 496.881 143.831C493.571 147.501 491.351 152.131 490.931 157.161C490.541 161.731 493.231 166.131 498.001 166.881C498.971 167.031 499.981 166.981 500.971 166.771C501.011 167.051 501.061 167.351 501.111 167.631C497.331 173.211 495.021 179.781 494.761 186.591C494.581 191.171 496.911 195.541 501.831 196.321C503.021 196.511 504.321 196.381 505.561 195.991C503.481 202.371 502.981 209.251 504.211 215.881C504.521 217.541 505.211 219.081 506.201 220.331C505.661 220.921 505.121 221.501 504.551 222.071C501.321 225.341 502.581 231.371 505.891 234.021C509.791 237.131 514.601 235.961 517.841 232.681C526.561 223.851 532.171 212.861 535.041 200.851C535.161 200.341 535.221 199.861 535.261 199.391C554.301 197.321 570.271 192.891 586.211 182.891C588.021 186.241 591.751 188.501 596.351 186.811C600.281 185.361 604.091 183.611 607.771 181.621C607.781 181.641 607.781 181.661 607.791 181.681C609.491 186.191 614.341 188.031 618.741 186.651C625.411 184.561 631.551 180.671 636.321 175.541C637.991 180.311 643.901 184.021 649.511 180.451C654.561 177.241 659.731 173.621 664.241 169.441C664.021 171.791 663.821 174.151 663.671 176.511C663.391 181.091 665.891 185.471 670.741 186.241C672.521 186.521 674.481 186.121 676.181 185.221C676.051 185.991 676.011 186.821 676.101 187.721C677.491 200.971 681.101 216.391 691.771 225.311C698.111 230.611 705.731 224.311 705.431 217.891C708.031 219.021 711.001 218.951 713.601 217.061C717.031 214.571 718.551 208.641 715.481 205.191C711.791 201.051 712.581 194.551 712.341 188.831C714.981 187.731 716.851 185.231 717.661 182.251C720.141 173.121 718.631 163.891 714.381 155.681C715.491 156.061 716.691 156.251 717.961 156.121Z" fill="#1E2D46"/>
</svg>
