<svg width="1210" height="962" viewBox="0 0 1210 962" fill="none" xmlns="http://www.w3.org/2000/svg">
<path d="M579.925 405.791C553.765 372.611 541.305 360.531 541.305 360.531C541.305 360.531 572.445 353.181 606.095 353.181C639.745 353.181 670.885 360.531 670.885 360.531C670.885 360.531 658.425 372.611 632.265 405.791C621.785 419.091 590.415 419.091 579.925 405.791Z" fill="#FE8572"/>
<path d="M650.685 361.261L639.095 265.561H573.095L561.505 361.261C560.355 370.791 567.785 379.181 577.385 379.181H634.795C644.405 379.181 651.845 370.791 650.685 361.261Z" fill="#FE8572"/>
<path d="M573.105 265.561L564.265 338.541C591.895 352.121 622.465 343.571 645.955 322.211L639.095 265.561H573.105Z" fill="#1A1A1A"/>
<path d="M703.605 142.601C703.605 99.5007 644.145 65.5207 610.165 64.9707H597.815C563.825 65.5207 504.375 99.5007 504.375 142.601C504.375 142.601 514.325 230.781 519.785 265.381C525.245 299.991 584.215 339.561 603.995 339.871C623.775 340.171 682.745 299.991 688.205 265.381C693.665 230.771 703.605 142.601 703.605 142.601Z" fill="#FE8572"/>
<path d="M520.115 263.141C512.525 258.301 504.875 253.421 498.505 247.461C492.135 241.501 487.055 234.311 485.675 226.601C484.295 218.891 484.145 209.391 494.125 206.081C502.495 203.311 519.685 221.751 519.685 221.751L520.115 263.141Z" fill="#FE8572"/>
<path d="M683.535 263.141C691.125 258.301 698.775 253.421 705.145 247.461C711.515 241.501 716.595 234.311 717.975 226.601C719.355 218.891 719.505 209.391 709.525 206.081C701.155 203.311 683.965 221.751 683.965 221.751L683.535 263.141Z" fill="#FE8572"/>
<path d="M606.485 254.411C607.055 254.161 608.455 253.491 608.585 252.701C608.715 251.911 605.535 251.741 603.975 251.331C602.415 250.921 600.825 249.971 600.605 248.321C600.335 246.271 602.295 244.321 602.595 242.211C602.615 242.071 602.625 241.921 602.635 241.781C601.755 240.031 599.865 240.561 598.795 241.691C598.085 242.441 597.685 243.421 597.355 244.381C596.645 246.481 596.265 248.711 596.675 250.771C597.085 252.821 598.375 254.671 600.315 255.301C602.245 255.931 604.415 255.301 606.485 254.411Z" fill="#B04F2E"/>
<path d="M638.245 207.331C643.795 204.491 650.545 206.791 654.035 212.611C654.525 213.431 655.415 213.831 656.195 213.281C656.885 212.801 657.255 211.541 656.765 210.711C654.655 207.201 651.705 204.551 648.235 203.231C644.415 201.781 640.305 202.211 636.645 204.081C635.865 204.481 635.685 205.851 636.075 206.651C636.555 207.621 637.465 207.731 638.245 207.331Z" fill="#1A1A1A"/>
<path d="M572.445 207.491C566.935 204.571 560.155 206.771 556.585 212.551C556.075 213.371 555.185 213.751 554.415 213.191C553.735 212.701 553.375 211.441 553.885 210.621C556.035 207.141 559.025 204.531 562.525 203.271C566.365 201.881 570.475 202.361 574.095 204.281C574.875 204.691 575.035 206.061 574.625 206.851C574.135 207.801 573.225 207.901 572.445 207.491Z" fill="#1A1A1A"/>
<path d="M654.435 225.171C654.225 231.511 649.605 236.261 644.485 236.081C639.365 235.901 635.685 230.851 635.895 224.511C636.105 218.171 640.415 213.171 645.545 213.351C650.655 213.541 654.645 218.831 654.435 225.171Z" fill="#1A1A1A"/>
<path d="M556.645 224.051C556.435 230.391 559.925 235.901 565.055 236.081C570.175 236.261 574.985 231.051 575.195 224.711C575.405 218.371 571.415 213.081 566.295 212.901C561.165 212.721 556.845 217.711 556.645 224.051Z" fill="#1A1A1A"/>
<path d="M607.785 282.651C606.755 282.651 605.735 282.501 604.765 282.191C600.765 280.911 598.315 277.031 599.305 273.561C599.755 271.981 600.885 270.581 602.385 269.571C600.585 268.181 599.575 266.301 599.595 264.401C599.625 262.501 600.685 260.631 602.525 259.271C604.365 257.911 606.715 257.261 608.985 257.471C610.185 257.581 611.045 258.481 610.905 259.481C610.775 260.481 609.695 261.201 608.495 261.081C607.445 260.981 606.325 261.321 605.405 261.991C604.485 262.671 603.955 263.561 603.945 264.431C603.935 265.311 604.445 266.211 605.345 266.901C606.025 267.421 606.815 267.751 607.615 267.851C608.015 267.831 608.405 267.841 608.805 267.871L608.795 271.491C608.385 271.521 607.975 271.521 607.565 271.501C605.725 271.681 603.965 272.901 603.535 274.391C603.045 276.101 604.355 278.161 606.325 278.791C608.295 279.421 610.915 278.631 611.935 277.091C612.515 276.211 613.845 275.891 614.895 276.381C615.945 276.871 616.335 277.971 615.755 278.851C614.185 281.211 610.985 282.651 607.785 282.651Z" fill="#B04F2E"/>
<path d="M717.245 155.111C721.655 154.671 725.535 150.361 724.865 145.811C724.025 140.111 721.655 134.831 718.095 130.531C720.485 129.781 722.595 128.031 723.575 125.791C725.525 121.351 723.295 116.721 719.205 114.591C714.685 112.231 710.055 110.181 705.285 108.401C705.175 108.241 705.065 108.081 704.945 107.931C705.995 107.071 706.845 106.011 707.345 104.881C709.375 100.241 706.925 96.0506 702.975 93.6806C697.895 90.6306 692.565 88.0506 687.065 85.9006C691.205 82.0706 691.855 74.5206 685.095 72.0406C677.405 69.2106 669.794 68.8806 662.424 70.8306C658.945 62.4106 653.385 54.9906 645.965 49.2606C640.395 44.9606 633.995 48.9406 632.475 54.1106C628.905 50.8106 624.725 48.1706 620.065 46.4306C615.775 44.8206 610.785 46.4306 608.865 50.8006C608.605 51.3806 608.435 52.0006 608.325 52.6306C603.855 48.9106 598.495 46.3206 592.355 45.1706C587.385 44.2306 584.155 47.3106 583.174 51.0806C574.624 48.4506 565.785 48.5306 556.975 51.0006C553.915 51.8606 551.985 54.8506 551.585 57.9506C546.925 58.3306 542.305 59.2206 537.705 60.5806C532.665 62.0706 531.445 66.5106 532.695 70.3806C524.365 72.0206 516.785 75.7406 513.225 83.5506C511.365 87.6406 512.895 91.1906 515.655 93.2806C506.755 97.0706 500.015 106.211 499.655 115.921C499.605 117.371 499.805 118.781 500.255 120.081C496.245 122.861 493.085 126.791 491.585 131.561C490.255 135.791 491.355 140.981 495.955 142.761C496.025 142.791 496.094 142.801 496.164 142.831C492.854 146.501 490.635 151.131 490.215 156.161C489.825 160.731 492.515 165.131 497.285 165.891C498.255 166.041 499.265 165.991 500.255 165.781C500.295 166.061 500.345 166.361 500.395 166.641C496.615 172.221 494.305 178.791 494.045 185.601C493.865 190.181 496.195 194.551 501.115 195.331C502.305 195.521 503.605 195.391 504.845 195.001C502.765 201.381 502.265 208.261 503.495 214.891C503.805 216.551 504.495 218.091 505.485 219.341C504.945 219.931 504.405 220.511 503.835 221.081C500.605 224.351 501.865 230.381 505.175 233.031C509.075 236.141 513.885 234.971 517.125 231.691C525.845 222.861 531.455 211.871 534.325 199.861C534.445 199.351 534.505 198.871 534.545 198.401C553.585 196.331 569.555 191.901 585.495 181.901C587.305 185.251 591.035 187.511 595.635 185.821C599.565 184.371 603.375 182.621 607.055 180.631C607.065 180.651 607.065 180.671 607.075 180.691C608.775 185.201 613.625 187.041 618.025 185.661C624.695 183.571 630.835 179.681 635.605 174.551C637.275 179.321 643.185 183.031 648.795 179.461C653.845 176.251 659.015 172.631 663.525 168.451C663.305 170.801 663.105 173.161 662.955 175.521C662.675 180.101 665.175 184.481 670.025 185.251C671.805 185.531 673.765 185.131 675.465 184.231C675.335 185.001 675.295 185.831 675.385 186.731C676.775 199.981 680.385 215.401 691.055 224.321C697.395 229.621 705.015 223.321 704.715 216.901C707.315 218.031 710.285 217.961 712.885 216.071C716.315 213.581 717.835 207.651 714.765 204.201C711.075 200.061 711.865 193.561 711.625 187.841C714.265 186.741 716.135 184.241 716.945 181.261C719.425 172.131 717.914 162.901 713.664 154.691C714.774 155.051 715.975 155.231 717.245 155.111Z" fill="#1E2D46"/>
</svg>
