<svg width="1210" height="962" viewBox="0 0 1210 962" fill="none" xmlns="http://www.w3.org/2000/svg">
<path d="M580.641 411.791C554.481 378.611 542.021 366.531 542.021 366.531C542.021 366.531 573.161 359.181 606.811 359.181C640.461 359.181 671.601 366.531 671.601 366.531C671.601 366.531 659.14 378.611 632.98 411.791C622.49 425.091 591.131 425.091 580.641 411.791Z" fill="#FE8572"/>
<path d="M651.401 367.261L639.81 271.561H573.81L562.22 367.261C561.07 376.791 568.501 385.181 578.101 385.181H635.51C645.11 385.181 652.551 376.791 651.401 367.261Z" fill="#FE8572"/>
<path d="M573.811 271.561L564.97 344.541C592.6 358.121 623.171 349.571 646.661 328.211L639.801 271.561H573.811V271.561Z" fill="#1A1A1A"/>
<path d="M703.391 147.051C702.731 103.961 642.76 70.8906 608.77 70.8606L596.42 71.0506C562.45 72.1206 503.52 107.011 504.18 150.101C504.18 150.101 515.48 238.121 521.47 272.631C527.46 307.151 587.03 345.821 606.81 345.821C626.59 345.821 684.94 304.741 689.87 270.051C694.79 235.371 703.391 147.051 703.391 147.051Z" fill="#FE8572"/>
<path d="M521.771 270.381C514.111 265.661 506.39 260.901 499.93 255.041C493.47 249.181 488.281 242.071 486.781 234.381C485.281 226.691 484.991 217.191 494.911 213.741C503.241 210.841 520.7 229.021 520.7 229.021L521.771 270.381Z" fill="#FE8572"/>
<path d="M685.17 267.881C692.68 262.931 700.261 257.931 706.531 251.871C712.811 245.811 717.781 238.551 719.041 230.821C720.311 223.091 720.311 213.581 710.281 210.441C701.871 207.801 684.97 226.501 684.97 226.501L685.17 267.881Z" fill="#FE8572"/>
<path d="M607.2 260.411C607.77 260.161 609.171 259.491 609.301 258.701C609.421 257.911 606.25 257.741 604.69 257.331C603.13 256.921 601.541 255.971 601.321 254.321C601.051 252.271 603.011 250.321 603.311 248.211C603.331 248.071 603.341 247.921 603.351 247.781C602.471 246.031 600.581 246.561 599.511 247.691C598.801 248.441 598.401 249.421 598.071 250.381C597.361 252.481 596.981 254.711 597.391 256.771C597.801 258.821 599.091 260.671 601.031 261.301C602.961 261.931 605.13 261.301 607.2 260.411Z" fill="#B04F2E"/>
<path d="M638.96 213.331C644.51 210.491 651.26 212.791 654.75 218.611C655.24 219.431 656.131 219.831 656.911 219.281C657.601 218.801 657.97 217.541 657.48 216.711C655.37 213.201 652.42 210.551 648.95 209.231C645.13 207.781 641.021 208.211 637.361 210.081C636.581 210.481 636.4 211.851 636.79 212.651C637.27 213.621 638.17 213.731 638.96 213.331Z" fill="#1A1A1A"/>
<path d="M573.161 213.491C567.651 210.571 560.871 212.771 557.301 218.551C556.791 219.371 555.901 219.751 555.131 219.191C554.451 218.701 554.091 217.441 554.601 216.621C556.751 213.141 559.74 210.531 563.24 209.271C567.08 207.881 571.191 208.361 574.811 210.281C575.591 210.691 575.751 212.061 575.341 212.851C574.841 213.801 573.941 213.901 573.161 213.491Z" fill="#1A1A1A"/>
<path d="M655.151 231.171C654.941 237.511 650.32 242.261 645.2 242.081C640.08 241.901 636.401 236.851 636.611 230.511C636.821 224.171 641.13 219.171 646.25 219.351C651.37 219.541 655.351 224.831 655.151 231.171Z" fill="#1A1A1A"/>
<path d="M557.351 230.051C557.141 236.391 560.63 241.901 565.76 242.081C570.88 242.261 575.691 237.051 575.901 230.711C576.111 224.371 572.12 219.081 567 218.901C561.88 218.721 557.561 223.711 557.351 230.051Z" fill="#1A1A1A"/>
<path d="M641.321 265.091C611.571 271.391 582.931 269.141 566.551 266.931C569.381 280.311 587.43 291.701 602.96 291.471C623.3 291.161 636.881 282.271 641.321 265.091Z" fill="white"/>
<path d="M527.45 251.971C532.39 265.471 530.311 275.351 530.041 290.151C544.261 321.361 588.351 352.281 605.571 352.281C620.691 352.281 656.501 328.461 674.651 301.531C674.911 284.971 678.911 265.591 683.371 251.961C652.571 249.181 610.541 229.311 600.101 229.311C589.661 229.311 561.98 251.051 527.45 251.971Z" fill="#E6E6E6"/>
<path d="M698.121 203.23L682.74 254L678.911 251.48L693.381 205.55L698.121 203.23Z" fill="#E6E6E6"/>
<path d="M690.7 264.09C690.7 264.09 681.331 291.61 673.561 296.9V302.82C673.561 302.82 689.071 286.17 690.861 271.68L690.7 264.09Z" fill="#E6E6E6"/>
<path d="M511.781 205.55L527.99 253.51L533.391 252.44L514.96 201.71L511.781 205.55Z" fill="#E6E6E6"/>
<path d="M520.94 269.87C520.94 269.87 531.311 293.94 539.081 298.41L539.25 302.31C539.25 302.31 523.061 289.69 521.271 277.44L520.94 269.87Z" fill="#E6E6E6"/>
<path d="M717.96 161.111C722.37 160.671 726.251 156.361 725.581 151.811C724.741 146.111 722.37 140.831 718.81 136.531C721.2 135.781 723.31 134.031 724.29 131.791C726.24 127.351 724.01 122.721 719.92 120.591C715.41 118.231 710.77 116.181 706 114.401C705.89 114.241 705.781 114.081 705.661 113.931C706.711 113.071 707.56 112.011 708.06 110.881C710.09 106.241 707.64 102.051 703.69 99.6806C698.61 96.6306 693.28 94.0506 687.78 91.9006C691.92 88.0706 692.57 80.5206 685.81 78.0406C678.12 75.2106 670.511 74.8806 663.141 76.8306C659.661 68.4106 654.1 60.9906 646.68 55.2606C641.11 50.9606 634.71 54.9406 633.19 60.1106C629.62 56.8106 625.44 54.1706 620.78 52.4306C616.49 50.8206 611.501 52.4306 609.581 56.8006C609.321 57.3806 609.15 58.0006 609.04 58.6306C604.57 54.9106 599.21 52.3206 593.07 51.1706C588.1 50.2306 584.881 53.3106 583.891 57.0806C575.341 54.4506 566.5 54.5306 557.69 57.0006C554.63 57.8606 552.7 60.8506 552.3 63.9506C547.64 64.3306 543.02 65.2206 538.42 66.5806C533.38 68.0706 532.161 72.5106 533.411 76.3806C525.081 78.0206 517.5 81.7406 513.94 89.5506C512.08 93.6406 513.611 97.1906 516.371 99.2806C507.471 103.071 500.731 112.211 500.371 121.921C500.321 123.371 500.52 124.781 500.97 126.081C496.96 128.861 493.8 132.791 492.3 137.561C490.97 141.791 492.07 146.981 496.67 148.761C496.74 148.791 496.811 148.801 496.881 148.831C493.571 152.501 491.35 157.131 490.93 162.161C490.54 166.731 493.23 171.131 498 171.891C498.97 172.041 499.98 171.991 500.97 171.781C501.01 172.061 501.061 172.361 501.111 172.641C497.331 178.221 495.02 184.791 494.76 191.601C494.58 196.181 496.911 200.551 501.831 201.331C503.021 201.521 504.32 201.391 505.56 201.001C503.48 207.381 502.98 214.261 504.21 220.891C504.52 222.551 505.21 224.091 506.2 225.341C505.66 225.931 505.12 226.511 504.55 227.081C501.32 230.351 502.581 236.381 505.891 239.031C509.791 242.141 514.601 240.971 517.841 237.691C526.561 228.861 532.17 217.871 535.04 205.861C535.16 205.351 535.23 204.871 535.26 204.401C554.3 202.331 570.27 197.901 586.21 187.901C588.02 191.251 591.751 193.511 596.351 191.821C600.281 190.371 604.09 188.621 607.77 186.631C607.78 186.651 607.78 186.671 607.79 186.691C609.49 191.201 614.34 193.041 618.74 191.661C625.41 189.571 631.55 185.681 636.32 180.551C637.99 185.321 643.9 189.031 649.51 185.461C654.56 182.251 659.73 178.631 664.24 174.451C664.01 176.801 663.82 179.161 663.67 181.521C663.39 186.101 665.89 190.481 670.74 191.251C672.52 191.531 674.48 191.131 676.18 190.231C676.05 191.001 676.011 191.831 676.101 192.731C677.491 205.981 681.1 221.401 691.77 230.321C698.11 235.621 705.73 229.321 705.43 222.901C708.03 224.031 711.001 223.961 713.601 222.071C717.031 219.581 718.55 213.651 715.48 210.201C711.79 206.061 712.581 199.561 712.341 193.841C714.981 192.741 716.851 190.241 717.661 187.261C720.141 178.131 718.631 168.901 714.381 160.691C715.481 161.051 716.69 161.231 717.96 161.111Z" fill="#1E2D46"/>
</svg>
