<svg width="1210" height="962" viewBox="0 0 1210 962" fill="none" xmlns="http://www.w3.org/2000/svg">
<path d="M580.64 409.791C554.48 376.611 542.021 364.531 542.021 364.531C542.021 364.531 573.161 357.181 606.811 357.181C640.461 357.181 671.601 364.531 671.601 364.531C671.601 364.531 659.14 376.611 632.98 409.791C622.49 423.091 591.13 423.091 580.64 409.791Z" fill="#FE8572"/>
<path d="M651.401 365.261L639.811 269.561H573.811L562.221 365.261C561.071 374.791 568.501 383.181 578.101 383.181H635.511C645.111 383.181 652.551 374.791 651.401 365.261Z" fill="#FE8572"/>
<path d="M573.811 269.561L564.971 342.541C592.601 356.121 623.171 347.571 646.661 326.211L639.801 269.561H573.811V269.561Z" fill="#1A1A1A"/>
<path d="M703.39 145.051C702.73 101.961 642.76 68.8906 608.77 68.8606L596.42 69.0506C562.45 70.1206 503.52 105.011 504.18 148.101C504.18 148.101 515.48 236.121 521.47 270.631C527.46 305.151 587.03 343.821 606.81 343.821C626.59 343.821 684.94 302.741 689.87 268.051C694.79 233.371 703.39 145.051 703.39 145.051Z" fill="#FE8572"/>
<path d="M521.771 268.381C514.111 263.661 506.39 258.901 499.93 253.041C493.47 247.181 488.281 240.071 486.781 232.381C485.281 224.691 484.991 215.191 494.911 211.741C503.241 208.841 520.7 227.021 520.7 227.021L521.771 268.381Z" fill="#FE8572"/>
<path d="M685.17 265.881C692.68 260.931 700.261 255.931 706.531 249.871C712.801 243.811 717.781 236.551 719.041 228.821C720.311 221.091 720.311 211.581 710.281 208.441C701.871 205.801 684.97 224.501 684.97 224.501L685.17 265.881Z" fill="#FE8572"/>
<path d="M607.2 258.411C607.77 258.161 609.171 257.491 609.301 256.701C609.421 255.911 606.25 255.741 604.69 255.331C603.13 254.921 601.541 253.971 601.321 252.321C601.051 250.271 603.011 248.321 603.311 246.211C603.331 246.071 603.341 245.921 603.351 245.781C602.471 244.031 600.58 244.561 599.51 245.691C598.8 246.441 598.401 247.421 598.071 248.381C597.361 250.481 596.98 252.711 597.39 254.771C597.8 256.821 599.09 258.671 601.03 259.301C602.96 259.931 605.13 259.301 607.2 258.411Z" fill="#B04F2E"/>
<path d="M655.15 229.171C654.94 235.511 650.32 240.261 645.2 240.081C640.08 239.901 636.4 234.851 636.61 228.511C636.82 222.171 641.131 217.171 646.261 217.351C651.371 217.541 655.35 222.831 655.15 229.171Z" fill="#1A1A1A"/>
<path d="M557.35 228.05C557.14 234.39 560.63 239.9 565.76 240.08C570.88 240.26 575.69 235.05 575.9 228.71C576.11 222.37 572.12 217.08 567 216.9C561.88 216.72 557.56 221.71 557.35 228.05Z" fill="#1A1A1A"/>
<path d="M651.541 214.841C651.191 214.841 650.841 214.751 650.531 214.561L635.591 205.741C634.641 205.181 634.32 203.951 634.88 203.001C635.44 202.051 636.67 201.731 637.62 202.291L652.561 211.111C653.511 211.671 653.831 212.901 653.271 213.851C652.891 214.491 652.221 214.841 651.541 214.841Z" fill="#1A1A1A"/>
<path d="M556.99 214.71C555.99 214.71 555.13 213.97 555.01 212.95C554.88 211.85 555.66 210.86 556.75 210.72C563.67 209.88 570.46 206.99 575.87 202.6C576.73 201.9 577.99 202.03 578.68 202.89C579.38 203.75 579.25 205.01 578.39 205.7C572.4 210.56 564.89 213.75 557.23 214.69C557.15 214.71 557.07 214.71 556.99 214.71Z" fill="#1A1A1A"/>
<path d="M582.261 281.311C581.841 281.311 581.411 281.191 581.031 280.931C580.031 280.251 579.771 278.891 580.451 277.881C586.001 269.691 595.601 264.461 605.491 264.231C615.381 264.001 625.21 268.771 631.14 276.691C631.87 277.661 631.671 279.031 630.701 279.761C629.731 280.491 628.36 280.291 627.63 279.321C622.53 272.521 614.121 268.411 605.591 268.621C597.091 268.821 588.851 273.311 584.081 280.351C583.651 280.981 582.961 281.311 582.261 281.311Z" fill="#B04F2E"/>
<path d="M717.96 159.111C722.37 158.671 726.251 154.361 725.581 149.811C724.741 144.111 722.37 138.831 718.81 134.531C721.2 133.781 723.31 132.031 724.29 129.791C726.24 125.351 724.01 120.721 719.92 118.591C715.4 116.231 710.77 114.181 706 112.401C705.89 112.241 705.78 112.081 705.66 111.931C706.71 111.071 707.56 110.011 708.06 108.881C710.09 104.241 707.64 100.051 703.69 97.6806C698.61 94.6306 693.28 92.0506 687.78 89.9006C691.92 86.0706 692.57 78.5206 685.81 76.0406C678.12 73.2106 670.51 72.8806 663.14 74.8306C659.66 66.4106 654.1 58.9906 646.68 53.2606C641.11 48.9606 634.71 52.9406 633.19 58.1106C629.62 54.8106 625.44 52.1706 620.78 50.4306C616.49 48.8206 611.501 50.4306 609.581 54.8006C609.321 55.3806 609.15 56.0006 609.04 56.6306C604.57 52.9106 599.21 50.3206 593.07 49.1706C588.1 48.2306 584.87 51.3106 583.89 55.0806C575.34 52.4506 566.5 52.5306 557.69 55.0006C554.63 55.8606 552.7 58.8506 552.3 61.9506C547.64 62.3306 543.02 63.2206 538.42 64.5806C533.38 66.0706 532.16 70.5106 533.41 74.3806C525.08 76.0206 517.5 79.7406 513.94 87.5506C512.08 91.6406 513.61 95.1906 516.37 97.2806C507.47 101.071 500.73 110.211 500.37 119.921C500.32 121.371 500.52 122.781 500.97 124.081C496.96 126.861 493.8 130.791 492.3 135.561C490.97 139.791 492.07 144.981 496.67 146.761C496.74 146.791 496.81 146.801 496.88 146.831C493.57 150.501 491.35 155.131 490.93 160.161C490.54 164.731 493.23 169.131 498 169.891C498.97 170.041 499.98 169.991 500.97 169.781C501.01 170.061 501.06 170.361 501.11 170.641C497.33 176.221 495.02 182.791 494.76 189.601C494.58 194.181 496.91 198.551 501.83 199.331C503.02 199.521 504.32 199.391 505.56 199.001C503.48 205.381 502.98 212.261 504.21 218.891C504.52 220.551 505.21 222.091 506.2 223.341C505.66 223.931 505.12 224.511 504.55 225.081C501.32 228.351 502.58 234.381 505.89 237.031C509.79 240.141 514.6 238.971 517.84 235.691C526.56 226.861 532.17 215.871 535.04 203.861C535.16 203.351 535.22 202.871 535.26 202.401C554.3 200.331 570.27 195.901 586.21 185.901C588.02 189.251 591.751 191.511 596.351 189.821C600.281 188.371 604.09 186.621 607.77 184.631C607.78 184.651 607.78 184.671 607.79 184.691C609.49 189.201 614.34 191.041 618.74 189.661C625.41 187.571 631.55 183.681 636.32 178.551C637.99 183.321 643.9 187.031 649.51 183.461C654.56 180.251 659.73 176.631 664.24 172.451C664.02 174.801 663.82 177.161 663.67 179.521C663.39 184.101 665.89 188.481 670.74 189.251C672.52 189.531 674.48 189.131 676.18 188.231C676.05 189.001 676.011 189.831 676.101 190.731C677.491 203.981 681.1 219.401 691.77 228.321C698.11 233.621 705.73 227.321 705.43 220.901C708.03 222.031 711.001 221.961 713.601 220.071C717.031 217.581 718.55 211.651 715.48 208.201C711.79 204.061 712.581 197.561 712.341 191.841C714.981 190.741 716.85 188.241 717.66 185.261C720.14 176.131 718.63 166.901 714.38 158.691C715.48 159.051 716.69 159.231 717.96 159.111Z" fill="#1E2D46"/>
</svg>
