<svg width="1210" height="962" viewBox="0 0 1210 962" fill="none" xmlns="http://www.w3.org/2000/svg">
<path d="M580.641 405.791C554.481 372.611 542.021 360.531 542.021 360.531C542.021 360.531 573.161 353.181 606.811 353.181C640.461 353.181 671.601 360.531 671.601 360.531C671.601 360.531 659.141 372.611 632.981 405.791C622.501 419.091 591.131 419.091 580.641 405.791Z" fill="#FE8572"/>
<path d="M651.401 361.261L639.811 265.561H573.811L562.221 361.261C561.071 370.791 568.501 379.181 578.101 379.181H635.511C645.121 379.181 652.561 370.791 651.401 361.261Z" fill="#FE8572"/>
<path d="M573.82 265.561L564.98 338.541C592.61 352.121 623.18 343.571 646.67 322.211L639.81 265.561H573.82V265.561Z" fill="#1A1A1A"/>
<path d="M703.391 141.051C702.731 97.9606 642.761 64.8906 608.771 64.8606L596.421 65.0506C562.451 66.1206 503.521 101.011 504.181 144.101C504.181 144.101 515.481 232.121 521.471 266.631C527.461 301.151 587.031 339.821 606.811 339.821C626.591 339.821 684.941 298.741 689.871 264.051C694.791 229.371 703.391 141.051 703.391 141.051Z" fill="#FE8572"/>
<path d="M521.771 264.381C514.111 259.661 506.391 254.901 499.931 249.041C493.471 243.181 488.281 236.071 486.781 228.381C485.281 220.691 484.991 211.191 494.911 207.741C503.241 204.841 520.701 223.021 520.701 223.021L521.771 264.381Z" fill="#FE8572"/>
<path d="M685.171 261.881C692.681 256.931 700.261 251.931 706.531 245.871C712.801 239.811 717.781 232.551 719.041 224.821C720.311 217.091 720.311 207.581 710.281 204.441C701.871 201.801 684.971 220.501 684.971 220.501L685.171 261.881Z" fill="#FE8572"/>
<path d="M607.721 252.761C608.291 252.511 609.691 251.841 609.821 251.051C609.941 250.261 606.771 250.091 605.211 249.681C603.651 249.271 602.061 248.321 601.841 246.671C601.571 244.621 603.531 242.671 603.831 240.561C603.851 240.421 603.861 240.271 603.871 240.131C602.991 238.381 601.101 238.911 600.031 240.041C599.321 240.791 598.921 241.771 598.591 242.731C597.881 244.831 597.501 247.061 597.911 249.121C598.321 251.171 599.611 253.021 601.551 253.651C603.491 254.281 605.651 253.651 607.721 252.761Z" fill="#B04F2E"/>
<path d="M638.961 207.331C644.511 204.491 651.261 206.791 654.751 212.611C655.241 213.431 656.13 213.831 656.91 213.281C657.6 212.801 657.971 211.541 657.481 210.711C655.371 207.201 652.421 204.551 648.951 203.231C645.131 201.781 641.021 202.211 637.361 204.081C636.581 204.481 636.4 205.851 636.79 206.651C637.28 207.621 638.181 207.731 638.961 207.331Z" fill="#1A1A1A"/>
<path d="M573.16 207.491C567.65 204.571 560.871 206.771 557.301 212.551C556.791 213.371 555.901 213.751 555.131 213.191C554.451 212.701 554.091 211.441 554.601 210.621C556.751 207.141 559.741 204.531 563.241 203.271C567.081 201.881 571.191 202.361 574.811 204.281C575.591 204.691 575.751 206.061 575.341 206.851C574.851 207.801 573.94 207.901 573.16 207.491Z" fill="#1A1A1A"/>
<path d="M655.151 225.171C654.941 231.511 650.321 236.261 645.201 236.081C640.081 235.901 636.401 230.851 636.611 224.511C636.821 218.171 641.131 213.171 646.251 213.351C651.371 213.541 655.361 218.831 655.151 225.171Z" fill="#1A1A1A"/>
<path d="M557.361 224.051C557.151 230.391 560.64 235.901 565.77 236.081C570.89 236.261 575.7 231.051 575.91 224.711C576.12 218.371 572.131 213.081 567.011 212.901C561.881 212.721 557.561 217.711 557.361 224.051Z" fill="#1A1A1A"/>
<path d="M580.131 256.851H627.431C632.621 256.851 636.431 260.431 635.281 264.191C631.321 277.171 621.251 293.821 603.761 293.821C586.271 293.821 576.241 277.171 572.281 264.191C571.141 260.431 574.941 256.851 580.131 256.851Z" fill="#B52D2D"/>
<path d="M580.131 256.851C580.131 256.851 583.141 269.191 603.781 269.191C624.431 269.191 625.431 256.851 625.431 256.851H580.131Z" fill="white"/>
<path d="M604.261 293.821C613.533 293.821 621.051 289.514 621.051 284.201C621.051 278.888 613.533 274.581 604.261 274.581C594.988 274.581 587.471 278.888 587.471 284.201C587.471 289.514 594.988 293.821 604.261 293.821Z" fill="#F76868"/>
<path d="M717.96 155.111C722.37 154.671 726.25 150.361 725.58 145.811C724.74 140.111 722.37 134.831 718.81 130.531C721.2 129.781 723.31 128.031 724.29 125.791C726.24 121.351 724.01 116.721 719.92 114.591C715.4 112.231 710.77 110.181 706 108.401C705.89 108.241 705.78 108.081 705.66 107.931C706.71 107.071 707.56 106.011 708.06 104.881C710.09 100.241 707.64 96.0506 703.69 93.6806C698.61 90.6306 693.28 88.0506 687.78 85.9006C691.92 82.0706 692.57 74.5206 685.81 72.0406C678.12 69.2106 670.51 68.8806 663.14 70.8306C659.66 62.4106 654.1 54.9906 646.68 49.2606C641.11 44.9606 634.71 48.9406 633.19 54.1106C629.62 50.8106 625.44 48.1706 620.78 46.4306C616.49 44.8206 611.5 46.4306 609.58 50.8006C609.32 51.3806 609.15 52.0006 609.04 52.6306C604.57 48.9106 599.21 46.3206 593.07 45.1706C588.1 44.2306 584.87 47.3106 583.89 51.0806C575.34 48.4506 566.5 48.5306 557.69 51.0006C554.63 51.8606 552.7 54.8506 552.3 57.9506C547.64 58.3306 543.02 59.2206 538.42 60.5806C533.38 62.0706 532.16 66.5106 533.41 70.3806C525.08 72.0206 517.5 75.7406 513.94 83.5506C512.08 87.6406 513.61 91.1906 516.37 93.2806C507.47 97.0706 500.73 106.211 500.37 115.921C500.32 117.371 500.52 118.781 500.97 120.081C496.96 122.861 493.8 126.791 492.3 131.561C490.97 135.791 492.07 140.981 496.67 142.761C496.74 142.791 496.81 142.801 496.88 142.831C493.57 146.501 491.35 151.131 490.93 156.161C490.54 160.731 493.23 165.131 498 165.891C498.97 166.041 499.98 165.991 500.97 165.781C501.01 166.061 501.06 166.361 501.11 166.641C497.33 172.221 495.02 178.791 494.76 185.601C494.58 190.181 496.91 194.551 501.83 195.331C503.02 195.521 504.32 195.391 505.56 195.001C503.48 201.381 502.98 208.261 504.21 214.891C504.52 216.551 505.21 218.091 506.2 219.341C505.66 219.931 505.12 220.511 504.55 221.081C501.32 224.351 502.58 230.381 505.89 233.031C509.79 236.141 514.6 234.971 517.84 231.691C526.55 222.861 532.17 211.871 535.04 199.861C535.16 199.351 535.22 198.871 535.26 198.401C554.3 196.331 570.27 191.901 586.21 181.901C588.02 185.251 591.75 187.511 596.35 185.821C600.28 184.371 604.09 182.621 607.77 180.631C607.78 180.651 607.78 180.671 607.79 180.691C609.49 185.201 614.34 187.041 618.74 185.661C625.41 183.571 631.55 179.681 636.32 174.551C637.99 179.321 643.9 183.031 649.51 179.461C654.56 176.251 659.73 172.631 664.24 168.451C664.02 170.801 663.82 173.161 663.67 175.521C663.39 180.101 665.89 184.481 670.74 185.251C672.52 185.531 674.48 185.131 676.18 184.231C676.05 185.001 676.01 185.831 676.1 186.731C677.49 199.981 681.1 215.401 691.77 224.321C698.11 229.621 705.73 223.321 705.43 216.901C708.03 218.031 711 217.961 713.6 216.071C717.03 213.581 718.55 207.651 715.48 204.201C711.79 200.061 712.58 193.561 712.34 187.841C714.98 186.741 716.85 184.241 717.66 181.261C720.14 172.131 718.63 162.901 714.38 154.691C715.49 155.051 716.69 155.231 717.96 155.111Z" fill="#1E2D46"/>
</svg>
