<svg width="1210" height="962" viewBox="0 0 1210 962" fill="none" xmlns="http://www.w3.org/2000/svg">
<path d="M580.641 404.791C554.481 371.611 542.021 359.531 542.021 359.531C542.021 359.531 573.161 352.181 606.811 352.181C640.461 352.181 671.6 359.531 671.6 359.531C671.6 359.531 659.14 371.611 632.98 404.791C622.5 418.091 591.131 418.091 580.641 404.791Z" fill="#FE8572"/>
<path d="M651.401 360.261L639.811 264.561H573.811L562.221 360.261C561.071 369.791 568.501 378.181 578.101 378.181H635.511C645.121 378.181 652.561 369.791 651.401 360.261Z" fill="#FE8572"/>
<path d="M573.821 264.561L564.98 337.541C592.61 351.121 623.181 342.571 646.671 321.211L639.811 264.561H573.821V264.561Z" fill="#1A1A1A"/>
<path d="M703.391 140.051C702.731 96.9606 642.761 63.8906 608.771 63.8606L596.421 64.0506C562.451 65.1206 503.521 100.011 504.181 143.101C504.181 143.101 515.481 231.121 521.471 265.631C527.461 300.151 587.031 338.821 606.811 338.821C626.591 338.821 684.941 297.741 689.871 263.051C694.791 228.371 703.391 140.051 703.391 140.051Z" fill="#FE8572"/>
<path d="M521.771 263.381C514.111 258.661 506.391 253.901 499.931 248.041C493.471 242.181 488.281 235.071 486.781 227.381C485.281 219.691 484.991 210.191 494.911 206.741C503.241 203.841 520.701 222.021 520.701 222.021L521.771 263.381Z" fill="#FE8572"/>
<path d="M685.171 260.881C692.681 255.931 700.261 250.931 706.531 244.871C712.801 238.811 717.781 231.551 719.041 223.821C720.311 216.091 720.311 206.581 710.281 203.441C701.871 200.801 684.97 219.501 684.97 219.501L685.171 260.881Z" fill="#FE8572"/>
<path d="M607.201 253.411C607.771 253.161 609.171 252.491 609.301 251.701C609.431 250.911 606.251 250.741 604.691 250.331C603.131 249.921 601.541 248.971 601.321 247.321C601.051 245.271 603.011 243.321 603.311 241.211C603.331 241.071 603.341 240.921 603.351 240.781C602.471 239.031 600.581 239.561 599.511 240.691C598.801 241.441 598.401 242.421 598.071 243.381C597.361 245.481 596.981 247.711 597.391 249.771C597.801 251.821 599.091 253.671 601.031 254.301C602.971 254.931 605.131 254.301 607.201 253.411Z" fill="#B04F2E"/>
<path d="M638.961 206.331C644.511 203.491 651.261 205.791 654.751 211.611C655.241 212.431 656.131 212.831 656.911 212.281C657.601 211.801 657.971 210.541 657.481 209.711C655.371 206.201 652.421 203.551 648.951 202.231C645.131 200.781 641.021 201.211 637.361 203.081C636.581 203.481 636.401 204.851 636.791 205.651C637.281 206.621 638.181 206.731 638.961 206.331Z" fill="#1A1A1A"/>
<path d="M573.161 206.491C567.651 203.571 560.871 205.771 557.301 211.551C556.791 212.371 555.901 212.751 555.131 212.191C554.451 211.701 554.091 210.441 554.601 209.621C556.751 206.141 559.741 203.531 563.241 202.271C567.081 200.881 571.191 201.361 574.811 203.281C575.591 203.691 575.751 205.061 575.341 205.851C574.851 206.801 573.941 206.901 573.161 206.491Z" fill="#1A1A1A"/>
<path d="M655.151 224.171C654.941 230.511 650.321 235.261 645.201 235.081C640.081 234.901 636.401 229.851 636.611 223.511C636.821 217.171 641.131 212.171 646.261 212.351C651.371 212.541 655.361 217.831 655.151 224.171Z" fill="#1A1A1A"/>
<path d="M557.361 223.051C557.151 229.391 560.641 234.901 565.771 235.081C570.891 235.261 575.701 230.051 575.911 223.711C576.121 217.371 572.131 212.081 567.011 211.901C561.881 211.721 557.561 216.711 557.361 223.051Z" fill="#1A1A1A"/>
<path d="M605.541 273.191C593.781 273.191 582.191 268.551 573.691 260.411C572.861 259.621 572.841 258.311 573.631 257.481C574.421 256.651 575.731 256.621 576.561 257.421C584.301 264.831 594.841 269.051 605.541 269.051C605.671 269.051 605.801 269.051 605.931 269.051C616.771 268.951 627.391 264.501 635.081 256.861C635.891 256.051 637.201 256.061 638.011 256.871C638.821 257.681 638.811 258.991 638.001 259.801C629.561 268.201 617.881 273.091 605.971 273.201C605.821 273.191 605.681 273.191 605.541 273.191Z" fill="#B52D2D"/>
<path d="M717.961 154.111C722.371 153.671 726.251 149.361 725.581 144.811C724.741 139.111 722.371 133.831 718.811 129.531C721.201 128.781 723.311 127.031 724.291 124.791C726.241 120.351 724.001 115.721 719.921 113.591C715.401 111.231 710.771 109.181 706.001 107.401C705.891 107.241 705.781 107.081 705.661 106.931C706.711 106.071 707.561 105.011 708.061 103.881C710.091 99.2406 707.641 95.0506 703.691 92.6806C698.611 89.6306 693.281 87.0506 687.781 84.9006C691.921 81.0706 692.571 73.5206 685.811 71.0406C678.121 68.2106 670.511 67.8806 663.141 69.8306C659.661 61.4106 654.101 53.9906 646.681 48.2606C641.111 43.9606 634.711 47.9406 633.191 53.1106C629.621 49.8106 625.441 47.1706 620.781 45.4306C616.491 43.8206 611.501 45.4306 609.581 49.8006C609.321 50.3806 609.151 51.0006 609.041 51.6306C604.571 47.9106 599.211 45.3206 593.071 44.1706C588.101 43.2306 584.871 46.3106 583.891 50.0806C575.341 47.4506 566.501 47.5306 557.691 50.0006C554.631 50.8606 552.701 53.8506 552.301 56.9506C547.641 57.3306 543.021 58.2206 538.421 59.5806C533.381 61.0706 532.161 65.5106 533.411 69.3806C525.081 71.0206 517.501 74.7406 513.941 82.5506C512.081 86.6406 513.611 90.1906 516.371 92.2806C507.471 96.0706 500.731 105.211 500.371 114.921C500.321 116.371 500.521 117.781 500.971 119.081C496.961 121.861 493.801 125.791 492.301 130.561C490.971 134.791 492.071 139.981 496.671 141.761C496.741 141.791 496.811 141.801 496.881 141.831C493.571 145.501 491.351 150.131 490.931 155.161C490.541 159.731 493.231 164.131 498.001 164.891C498.971 165.041 499.981 164.991 500.971 164.781C501.011 165.061 501.061 165.361 501.111 165.641C497.331 171.221 495.021 177.791 494.761 184.601C494.581 189.181 496.911 193.551 501.831 194.331C503.021 194.521 504.321 194.391 505.561 194.001C503.481 200.381 502.981 207.261 504.211 213.891C504.521 215.551 505.211 217.091 506.201 218.341C505.661 218.931 505.121 219.511 504.551 220.081C501.321 223.351 502.581 229.381 505.891 232.031C509.791 235.141 514.601 233.971 517.841 230.691C526.561 221.861 532.171 210.871 535.041 198.861C535.161 198.351 535.221 197.871 535.261 197.401C554.301 195.331 570.271 190.901 586.211 180.901C588.021 184.251 591.751 186.511 596.351 184.821C600.281 183.371 604.091 181.621 607.771 179.631C607.781 179.651 607.781 179.671 607.791 179.691C609.491 184.201 614.341 186.041 618.741 184.661C625.411 182.571 631.551 178.681 636.321 173.551C637.991 178.321 643.901 182.031 649.511 178.461C654.561 175.251 659.731 171.631 664.241 167.451C664.021 169.801 663.821 172.161 663.671 174.521C663.391 179.101 665.891 183.481 670.741 184.251C672.521 184.531 674.481 184.131 676.181 183.231C676.051 184.001 676.011 184.831 676.101 185.731C677.491 198.981 681.101 214.401 691.771 223.321C698.111 228.621 705.731 222.321 705.431 215.901C708.031 217.031 711.001 216.961 713.601 215.071C717.031 212.581 718.551 206.651 715.481 203.201C711.791 199.061 712.581 192.561 712.341 186.841C714.981 185.741 716.851 183.241 717.661 180.261C720.141 171.131 718.631 161.901 714.381 153.691C715.491 154.051 716.691 154.231 717.961 154.111Z" fill="#1E2D46"/>
</svg>
