<svg width="1210" height="962" viewBox="0 0 1210 962" fill="none" xmlns="http://www.w3.org/2000/svg">
<path d="M580.641 402.791C554.481 369.611 542.021 357.531 542.021 357.531C542.021 357.531 573.161 350.181 606.811 350.181C640.461 350.181 671.601 357.531 671.601 357.531C671.601 357.531 659.141 369.611 632.981 402.791C622.491 416.091 591.131 416.091 580.641 402.791Z" fill="#FE8572"/>
<path d="M651.401 358.261L639.811 262.561H573.811L562.221 358.261C561.071 367.791 568.501 376.181 578.101 376.181H635.511C645.111 376.181 652.551 367.791 651.401 358.261Z" fill="#FE8572"/>
<path d="M573.811 262.561L564.971 335.541C592.601 349.121 623.171 340.571 646.661 319.211L639.801 262.561H573.811Z" fill="#1A1A1A"/>
<path d="M703.391 138.051C702.73 94.9606 642.761 61.8906 608.771 61.8606L596.421 62.0506C562.451 63.1206 503.521 98.0106 504.181 141.101C504.181 141.101 515.481 229.121 521.471 263.631C527.461 298.151 587.031 336.821 606.811 336.821C626.591 336.821 684.94 295.741 689.87 261.051C694.79 226.371 703.391 138.051 703.391 138.051Z" fill="#FE8572"/>
<path d="M521.771 261.381C514.111 256.661 506.391 251.901 499.931 246.041C493.471 240.181 488.281 233.071 486.781 225.381C485.281 217.691 484.991 208.191 494.911 204.741C503.241 201.841 520.701 220.021 520.701 220.021L521.771 261.381Z" fill="#FE8572"/>
<path d="M685.171 258.881C692.681 253.931 700.261 248.931 706.531 242.871C712.801 236.811 717.781 229.551 719.041 221.821C720.311 214.091 720.311 204.581 710.281 201.441C701.871 198.801 684.971 217.501 684.971 217.501L685.171 258.881Z" fill="#FE8572"/>
<path d="M604.271 243.961C604.851 243.711 606.241 243.041 606.371 242.251C606.491 241.461 603.321 241.291 601.761 240.881C600.201 240.471 598.611 239.521 598.391 237.871C598.121 235.821 600.081 233.871 600.381 231.761C600.401 231.621 600.411 231.471 600.421 231.331C599.541 229.581 597.651 230.111 596.581 231.241C595.871 231.991 595.471 232.971 595.141 233.931C594.431 236.031 594.051 238.261 594.461 240.321C594.871 242.381 596.161 244.221 598.101 244.851C600.031 245.481 602.201 244.851 604.271 243.961Z" fill="#B04F2E"/>
<path d="M638.961 204.331C644.511 201.491 651.26 203.791 654.75 209.611C655.24 210.431 656.131 210.831 656.911 210.281C657.601 209.801 657.971 208.541 657.481 207.711C655.371 204.201 652.421 201.551 648.951 200.231C645.131 198.781 641.02 199.211 637.36 201.081C636.58 201.481 636.401 202.851 636.791 203.651C637.271 204.621 638.171 204.731 638.961 204.331Z" fill="#1A1A1A"/>
<path d="M573.161 204.491C567.651 201.571 560.871 203.771 557.301 209.551C556.791 210.371 555.9 210.751 555.13 210.191C554.45 209.701 554.091 208.441 554.601 207.621C556.751 204.141 559.74 201.531 563.24 200.271C567.08 198.881 571.191 199.361 574.811 201.281C575.591 201.691 575.751 203.061 575.341 203.851C574.841 204.801 573.941 204.901 573.161 204.491Z" fill="#1A1A1A"/>
<path d="M655.151 222.171C654.941 228.511 650.321 233.261 645.201 233.081C640.081 232.901 636.4 227.851 636.61 221.511C636.82 215.171 641.131 210.171 646.261 210.351C651.371 210.541 655.351 215.831 655.151 222.171Z" fill="#1A1A1A"/>
<path d="M557.351 221.051C557.141 227.391 560.63 232.901 565.76 233.081C570.88 233.261 575.69 228.051 575.9 221.711C576.11 215.371 572.12 210.081 567 209.901C561.88 209.721 557.561 214.711 557.351 221.051Z" fill="#1A1A1A"/>
<path d="M609.301 282.801C618.049 282.801 625.141 274.366 625.141 263.961C625.141 253.556 618.049 245.121 609.301 245.121C600.552 245.121 593.461 253.556 593.461 263.961C593.461 274.366 600.552 282.801 609.301 282.801Z" fill="#B52D2D"/>
<path d="M593.461 275.861C593.461 275.861 599.061 286.291 607.201 286.291C607.201 286.291 595.491 290.361 593.461 275.861Z" fill="#B04F2E"/>
<path d="M717.96 152.111C722.37 151.671 726.25 147.361 725.58 142.811C724.74 137.111 722.37 131.831 718.81 127.531C721.2 126.781 723.31 125.031 724.29 122.791C726.24 118.351 724.01 113.721 719.92 111.591C715.4 109.231 710.77 107.181 706 105.401C705.89 105.241 705.78 105.081 705.66 104.931C706.71 104.071 707.56 103.011 708.06 101.881C710.09 97.2406 707.64 93.0506 703.69 90.6806C698.61 87.6306 693.28 85.0506 687.78 82.9006C691.92 79.0706 692.57 71.5206 685.81 69.0406C678.12 66.2106 670.51 65.8806 663.14 67.8306C659.66 59.4106 654.1 51.9906 646.68 46.2606C641.11 41.9606 634.71 45.9406 633.19 51.1106C629.62 47.8106 625.44 45.1706 620.78 43.4306C616.49 41.8206 611.5 43.4306 609.58 47.8006C609.32 48.3806 609.15 49.0006 609.04 49.6306C604.57 45.9106 599.21 43.3206 593.07 42.1706C588.1 41.2306 584.87 44.3106 583.89 48.0806C575.34 45.4506 566.5 45.5306 557.69 48.0006C554.63 48.8606 552.7 51.8506 552.3 54.9506C547.64 55.3306 543.02 56.2206 538.42 57.5806C533.38 59.0706 532.16 63.5106 533.41 67.3806C525.08 69.0206 517.5 72.7406 513.94 80.5506C512.08 84.6406 513.61 88.1906 516.37 90.2806C507.47 94.0706 500.73 103.211 500.37 112.921C500.32 114.371 500.52 115.781 500.97 117.081C496.96 119.861 493.8 123.791 492.3 128.561C490.97 132.791 492.07 137.981 496.67 139.761C496.74 139.791 496.81 139.801 496.88 139.831C493.57 143.501 491.35 148.131 490.93 153.161C490.54 157.731 493.23 162.131 498 162.891C498.97 163.041 499.98 162.991 500.97 162.781C501.01 163.061 501.06 163.361 501.11 163.641C497.33 169.221 495.02 175.791 494.76 182.601C494.58 187.181 496.91 191.551 501.83 192.331C503.02 192.521 504.32 192.391 505.56 192.001C503.48 198.381 502.98 205.261 504.21 211.891C504.52 213.551 505.21 215.091 506.2 216.341C505.66 216.931 505.12 217.511 504.55 218.081C501.32 221.351 502.58 227.381 505.89 230.031C509.79 233.141 514.6 231.971 517.84 228.691C526.56 219.861 532.17 208.871 535.04 196.861C535.16 196.351 535.22 195.871 535.26 195.401C554.3 193.331 570.27 188.901 586.21 178.901C588.02 182.251 591.75 184.511 596.35 182.821C600.28 181.371 604.09 179.621 607.77 177.631C607.78 177.651 607.78 177.671 607.79 177.691C609.49 182.201 614.34 184.041 618.74 182.661C625.41 180.571 631.55 176.681 636.32 171.551C637.99 176.321 643.9 180.031 649.51 176.461C654.56 173.251 659.73 169.631 664.24 165.451C664.02 167.801 663.82 170.161 663.67 172.521C663.39 177.101 665.89 181.481 670.74 182.251C672.52 182.531 674.48 182.131 676.18 181.231C676.05 182.001 676.01 182.831 676.1 183.731C677.49 196.981 681.1 212.401 691.77 221.321C698.11 226.621 705.73 220.321 705.43 213.901C708.03 215.031 711 214.961 713.6 213.071C717.03 210.581 718.55 204.651 715.48 201.201C711.79 197.061 712.58 190.561 712.34 184.841C714.98 183.741 716.85 181.241 717.66 178.261C720.14 169.131 718.63 159.901 714.38 151.691C715.48 152.051 716.69 152.231 717.96 152.111Z" fill="#1E2D46"/>
</svg>
