<svg width="1210" height="962" viewBox="0 0 1210 962" fill="none" xmlns="http://www.w3.org/2000/svg">
<path d="M779.165 402.031C760.725 390.611 692.335 389.121 728.995 506.571C759.415 604.011 760.415 665.911 773.935 695.991C787.815 726.891 859.675 746.171 868.125 702.471C876.575 658.751 814.085 423.661 779.165 402.031Z" fill="#F5B02F"/>
<path d="M861.326 658.031C873.576 704.101 867.326 713.201 857.896 736.251C848.466 759.301 758.306 907.081 758.306 907.081L689.486 849.401C689.486 849.401 761.406 727.311 765.556 706.611C766.636 701.211 768.396 686.901 770.956 669.221C780.566 602.781 842.546 587.441 861.326 658.031Z" fill="#F5B02F"/>
<path d="M698.076 856.601L679.646 879.501C679.646 879.501 705.655 903.211 740.815 911.891L748.416 898.791C748.416 898.791 743.675 871.731 698.076 856.601Z" fill="#FE8572"/>
</svg>
