<svg width="1210" height="962" viewBox="0 0 1210 962" fill="none" xmlns="http://www.w3.org/2000/svg">
<path d="M431.735 402.031C450.175 390.611 518.565 389.121 481.905 506.571C451.485 604.011 450.485 665.911 436.965 695.991C423.085 726.891 351.225 746.171 342.775 702.471C334.335 658.751 396.815 423.661 431.735 402.031Z" fill="#F5B02F"/>
<path d="M349.585 658.031C337.335 704.101 343.585 713.201 353.015 736.251C362.445 759.301 452.605 907.081 452.605 907.081L521.425 849.401C521.425 849.401 449.505 727.311 445.355 706.611C444.275 701.211 442.515 686.901 439.955 669.221C430.345 602.781 368.355 587.441 349.585 658.031Z" fill="#F5B02F"/>
<path d="M512.826 856.601L531.256 879.501C531.256 879.501 505.246 903.211 470.086 911.891L462.486 898.791C462.486 898.791 467.236 871.731 512.826 856.601Z" fill="#FE8572"/>
</svg>
