<svg width="1210" height="962" viewBox="0 0 1210 962" fill="none" xmlns="http://www.w3.org/2000/svg">
<path d="M300.11 450.336C301.597 458.01 304.623 472.192 296.458 482.301C292.79 486.848 287.483 490.854 278.287 490.194C270.85 489.654 255.958 476.891 244.835 466.225C238.953 462.895 229.893 460.427 220.664 457.182C210.995 453.784 205.636 452.686 203.676 451.722C199.162 449.525 200.43 443.118 206.938 443.592C210.048 443.828 216.353 446.11 227.493 448.663C231.211 449.508 235.015 450.319 238.649 451.046C241.658 451.655 241.725 452.314 242.689 449.39C242.706 449.356 242.706 449.322 242.723 449.288C243.568 446.702 242.604 443.879 240.356 442.375C237.296 440.329 234 438.132 230.738 435.968C222.675 430.627 205.789 414.602 204.318 413.115C200.92 409.667 202.509 402.787 208.375 404.866C211.924 406.134 230.839 422.378 240.119 427.973C242.604 429.477 245.038 430.999 247.32 432.469C248.892 433.483 250.955 433.247 252.273 431.928L252.324 431.878C253.608 430.576 253.828 428.582 252.881 427.026C244.142 412.912 229.183 392.374 227.746 388.943C225.498 383.568 227.763 376.046 232.699 380.052C236.029 382.773 255.147 405.863 263.953 419.302C264.781 420.569 266.455 420.941 267.756 420.181C268.872 419.538 269.396 418.321 269.143 417.121C265.644 400.708 260.657 376.688 260.454 372.766C260.15 366.935 264.849 360.647 268.111 366.073C270.917 370.738 284.778 420.079 285.792 426.519C286.654 432.013 293.788 429.038 298.757 424.034C307.395 415.363 317.25 417.307 312.72 424.237C308.156 431.202 298.453 441.783 300.11 450.336Z" fill="#FE8572"/>
<path d="M438.92 400.336C454.15 390.904 505.013 388.081 480.367 486.712C459.509 570.147 452.494 617.578 443.248 643.204C430.198 679.36 369.65 680.662 362.669 644.556C355.688 608.451 410.066 418.203 438.92 400.336Z" fill="#F5B02F"/>
<path d="M420.242 657.605C441.625 638.15 424.654 601.621 405.891 578.903C392.791 563.048 312.905 453.26 312.905 453.26L257.395 501.097C257.395 501.097 322.523 597.379 332.699 611.527C370.022 663.454 387.72 687.203 420.242 657.605Z" fill="#F5B02F"/>
</svg>
